<svg width="150" height="37" fill="none" xmlns="http://www.w3.org/2000/svg"><path d="M60.864 9.918h2.885v13.908h-2.885V9.918ZM65.274 18.556c0-3.182 2.419-5.48 5.72-5.48 3.313 0 5.72 2.298 5.72 5.48 0 3.182-2.407 5.481-5.72 5.481-3.314 0-5.72-2.3-5.72-5.48Zm5.72 2.834c1.612 0 2.796-1.18 2.796-2.81 0-1.627-1.184-2.808-2.796-2.808-1.613 0-2.797 1.18-2.797 2.809 0 1.603 1.184 2.809 2.797 2.809ZM78.238 19.389v-6.103h2.885v5.767c0 1.516.718 2.35 2.003 2.35 1.512 0 2.47-.933 2.47-2.412v-5.692h2.885v10.527h-2.722l-.075-1.243c-.82.932-1.991 1.43-3.377 1.43-2.557.012-4.07-1.617-4.07-4.624ZM90.207 18.556c0-3.182 2.242-5.481 5.304-5.481 1.234 0 2.33.373 3.225 1.057V9.918h2.885v13.908h-2.495l-.113-1.057c-.932.796-2.13 1.268-3.502 1.268-3.175 0-5.304-2.424-5.304-5.481Zm5.72 2.834c1.65 0 2.834-1.169 2.834-2.81 0-1.64-1.184-2.808-2.835-2.808-1.637 0-2.81 1.168-2.81 2.809-.012 1.616 1.173 2.809 2.81 2.809ZM103.007 13.535v-.236h2.998l.945 3.057 1.109 3.43 2.381-5.928h2.192l2.419 5.94 1.096-3.454.945-3.058h2.973v.236l-3.552 10.291h-2.696l-1.071-2.71-1.235-3.268-1.26 3.269-1.096 2.71h-2.658l-3.49-10.28ZM120.33 18.556c0-3.219 2.281-5.48 5.38-5.48 1.36 0 2.57.471 3.464 1.267l.114-1.057h2.494v10.527h-2.494l-.114-1.056a5.286 5.286 0 0 1-3.464 1.268c-3.2.012-5.38-2.374-5.38-5.469Zm5.758 2.834c1.638 0 2.809-1.169 2.809-2.81 0-1.64-1.184-2.808-2.809-2.808-1.651 0-2.835 1.168-2.835 2.809 0 1.616 1.184 2.809 2.835 2.809ZM134.315 9.918h2.885v13.908h-2.885V9.918ZM142.478 19.19v4.636h-2.885V9.918h2.885v7.867l3.062-4.511h3.25v.26l-3.502 4.836 3.855 5.182v.261h-3.389l-3.276-4.623ZM54.892 21.39c-1.65 0-2.759-1.156-2.759-2.809 0-1.653 1.109-2.809 2.76-2.809 1.045 0 1.914.51 2.38 1.367l2.37-1.416c-.933-1.616-2.672-2.598-4.8-2.598-3.302 0-5.62 2.287-5.62 5.48 0 3.195 2.33 5.482 5.62 5.482 2.153 0 3.892-.994 4.824-2.598l-2.456-1.33c-.48.734-1.285 1.23-2.319 1.23ZM6.513 7.035a16.263 16.263 0 0 0-4.711 11.471c0 4.462 1.789 8.489 4.711 11.46a28.49 28.49 0 0 1-2.38-11.447c-.026-4.09.843-7.955 2.38-11.484Z" fill="#fff"/><path d="M8.428 31.643a16.516 16.516 0 0 0 4.234 2.287 25.37 25.37 0 0 1-5.216-15.424c0-5.804 1.953-11.148 5.24-15.449a17.516 17.516 0 0 0-4.258 2.287A27.655 27.655 0 0 0 5.09 18.506c.025 4.76 1.222 9.235 3.338 13.137Z" fill="#fff"/><path d="M14.375 34.464c1.184.299 2.444.46 3.717.498-4.485-4.09-7.295-9.943-7.295-16.431 0-6.513 2.81-12.367 7.32-16.456a17.6 17.6 0 0 0-3.717.498 24.178 24.178 0 0 0-5.946 15.946c0 6.09 2.217 11.645 5.921 15.945Z" fill="#fff"/><path d="M11.792 18.519c0 6.587 3.037 12.49 7.786 16.393.945-.05 1.865-.199 2.76-.41-5.154-3.505-8.543-9.359-8.543-15.996 0-6.65 3.39-12.503 8.555-16.008a16.768 16.768 0 0 0-2.76-.41c-4.774 3.94-7.798 9.831-7.798 16.43Z" fill="#fff"/><path d="M15.118 18.519c0 6.587 3.566 12.354 8.895 15.51a18.328 18.328 0 0 0 2.318-1.006c-5.455-2.623-9.197-8.116-9.197-14.504 0-6.389 3.767-11.895 9.222-14.505-.73-.385-1.511-.72-2.318-1.006-5.342 3.169-8.92 8.936-8.92 15.51Z" fill="#fff"/><path d="M18.457 18.519c0 6.177 3.817 11.446 9.247 13.671.555-.348 1.071-.758 1.575-1.18-5.329-1.728-9.159-6.675-9.159-12.491 0-5.842 3.855-10.776 9.184-12.504a18.46 18.46 0 0 0-1.574-1.18c-5.456 2.224-9.273 7.506-9.273 13.684Z" fill="#fff"/><path d="M21.796 18.518c0 5.42 3.78 9.956 8.894 11.186.429-.46.82-.932 1.197-1.429-4.775-.746-8.428-4.835-8.428-9.744 0-4.922 3.653-9.01 8.44-9.744-.377-.497-.768-.994-1.196-1.43-5.128 1.206-8.907 5.755-8.907 11.162Z" fill="#fff"/><path d="M25.45 18.518c0 4.226 3.388 7.694 7.634 7.868a16.328 16.328 0 0 0 2.041-7.892c0-2.846-.73-5.543-2.028-7.868-4.259.2-7.648 3.642-7.648 7.893Z" fill="#fff"/></svg>
